<svg width="201" height="202" viewBox="0 0 201 202" fill="none" xmlns="http://www.w3.org/2000/svg">
<path d="M181.629 50.5631L100.205 11.9117C99.4191 11.5432 98.5609 11.3571 97.6938 11.3672C96.8268 11.3774 95.9731 11.5835 95.1961 11.9703C94.4191 12.3571 93.7387 12.9147 93.2052 13.6017C92.6718 14.2887 92.2991 15.0876 92.1146 15.9391C92.0958 16.0022 85.5821 46.4284 75.909 76.76C72.6113 87.1567 68.918 97.4334 65.0613 106.46L75.5196 111.422C88.0821 82.1193 98.0315 41.6688 101.775 25.4899L172.546 59.0408C170.373 68.5916 164.801 92.011 157.345 115.393C152.528 130.543 146.887 145.674 141.108 156.626C135.518 167.925 128.81 173.48 127.308 172.735C118.389 172.925 112.12 164.769 107.899 154.315C106.124 149.716 104.743 144.973 103.773 140.137C102.969 136.236 102.724 133.787 102.705 133.787C102.605 132.8 102.251 131.857 101.678 131.049C101.106 130.241 100.334 129.596 99.4386 129.179L18.0336 90.5465C17.1061 90.1068 16.0792 89.9218 15.0576 90.0105C14.0359 90.0992 13.0558 90.4584 12.2171 91.0515C11.3833 91.65 10.7229 92.4606 10.3034 93.4001C9.884 94.3396 9.7207 95.3743 9.83024 96.3982C9.88049 96.6886 11.0551 108.076 15.7786 119.988C19.0574 128.32 24.6163 137.777 33.655 142.555L115.035 181.251L115.073 181.175C118.603 183.037 122.61 184.249 127.302 184.306C138.59 183.568 144.745 173.777 151.284 162.055C170.128 126.136 184.7 57.267 184.813 57.0145C185.092 55.7395 184.931 54.407 184.355 53.2366C183.78 52.0662 182.825 51.1278 181.648 50.5758L181.629 50.5631Z" fill="black"/>
</svg>
